<mxfile host="app.diagrams.net" modified="2023-08-23T12:52:37.508Z" agent="Mozilla/5.0 (Windows NT 10.0; Win64; x64) AppleWebKit/537.36 (KHTML, like Gecko) Chrome/115.0.0.0 Safari/537.36 Edg/115.0.1901.203" etag="2RmPgeEWgU08yDgBD_RV" version="21.6.9" type="device">
  <diagram name="페이지-1" id="bRWJxTf6ddDRXDPC21Tl">
    <mxGraphModel dx="1221" dy="602" grid="1" gridSize="10" guides="1" tooltips="1" connect="1" arrows="1" fold="1" page="1" pageScale="1" pageWidth="827" pageHeight="1169" math="0" shadow="0">
      <root>
        <mxCell id="0" />
        <mxCell id="1" parent="0" />
        <mxCell id="BXNq8Yvxw-T9wJy2Chpt-3" value="마우스를 옮긴다" style="rounded=1;whiteSpace=wrap;html=1;" vertex="1" parent="1">
          <mxGeometry x="130" y="200" width="120" height="60" as="geometry" />
        </mxCell>
        <mxCell id="BXNq8Yvxw-T9wJy2Chpt-9" value="" style="edgeStyle=orthogonalEdgeStyle;rounded=0;orthogonalLoop=1;jettySize=auto;html=1;" edge="1" parent="1" target="BXNq8Yvxw-T9wJy2Chpt-8">
          <mxGeometry relative="1" as="geometry">
            <mxPoint x="250" y="230" as="sourcePoint" />
          </mxGeometry>
        </mxCell>
        <mxCell id="BXNq8Yvxw-T9wJy2Chpt-11" value="" style="edgeStyle=orthogonalEdgeStyle;rounded=0;orthogonalLoop=1;jettySize=auto;html=1;" edge="1" parent="1" source="BXNq8Yvxw-T9wJy2Chpt-8" target="BXNq8Yvxw-T9wJy2Chpt-10">
          <mxGeometry relative="1" as="geometry" />
        </mxCell>
        <mxCell id="BXNq8Yvxw-T9wJy2Chpt-8" value="마우스 감도와 합친다" style="rounded=1;whiteSpace=wrap;html=1;" vertex="1" parent="1">
          <mxGeometry x="270" y="200" width="120" height="60" as="geometry" />
        </mxCell>
        <mxCell id="BXNq8Yvxw-T9wJy2Chpt-20" value="" style="edgeStyle=orthogonalEdgeStyle;rounded=0;orthogonalLoop=1;jettySize=auto;html=1;" edge="1" parent="1" source="BXNq8Yvxw-T9wJy2Chpt-10" target="BXNq8Yvxw-T9wJy2Chpt-19">
          <mxGeometry relative="1" as="geometry" />
        </mxCell>
        <mxCell id="BXNq8Yvxw-T9wJy2Chpt-10" value="결과 값 만큼&lt;br&gt;카메라를 돌린다" style="rounded=1;whiteSpace=wrap;html=1;" vertex="1" parent="1">
          <mxGeometry x="414" y="200" width="120" height="60" as="geometry" />
        </mxCell>
        <mxCell id="BXNq8Yvxw-T9wJy2Chpt-19" value="카메라의 Rotation&lt;br&gt;값을 제한한다." style="rounded=1;whiteSpace=wrap;html=1;" vertex="1" parent="1">
          <mxGeometry x="414" y="100" width="120" height="60" as="geometry" />
        </mxCell>
        <mxCell id="BXNq8Yvxw-T9wJy2Chpt-21" value="부모 클래스" style="text;html=1;strokeColor=none;fillColor=none;align=center;verticalAlign=middle;whiteSpace=wrap;rounded=0;" vertex="1" parent="1">
          <mxGeometry x="414" y="70" width="76" height="30" as="geometry" />
        </mxCell>
      </root>
    </mxGraphModel>
  </diagram>
</mxfile>
